# Blender v2.92.0 OBJ File: 'WhiteboxTwo1.blend'
# www.blender.org
o Cube_Cube.002
v 112.363968 -0.292065 53.498272
v 112.363968 92.751526 53.498272
v 112.363968 -0.292065 -6.501728
v 124.619286 77.631790 -6.148937
v 142.363968 -0.292065 53.498272
v 142.363968 92.751526 53.498272
v 142.363968 -0.292065 -6.501728
v 142.363968 92.751526 -6.501728
v 112.363968 46.229733 53.498272
v 142.093948 77.631790 53.228256
v 142.363968 46.229733 -6.501728
v 142.363968 46.229733 53.498272
v 124.473152 92.751526 -6.501728
v 112.363968 92.751526 5.607456
v 112.363968 46.229733 5.607456
v 124.473152 46.229733 -6.501728
v 112.363968 34.120548 -6.501728
v 142.093948 77.631790 -6.231714
v 124.619286 84.610214 -6.148937
v 142.093948 84.610214 53.228256
v 142.093948 84.610214 -6.231714
v 112.716759 84.610214 5.753588
v 112.716759 77.631790 5.753588
v 112.633980 84.610214 53.228256
v 112.633980 77.631790 53.228256
v 124.619286 85.385582 -6.148937
v 142.093948 85.385582 53.228256
v 142.093948 85.385582 -6.231714
v 112.633980 85.385582 53.228256
v 112.716759 85.385582 5.753588
v 124.619286 92.363403 -6.148937
v 142.093948 92.363403 53.228256
v 142.093948 92.363403 -6.231714
v 112.716759 92.363403 5.753588
v 112.633980 92.363403 53.228256
v 124.473152 92.363403 -6.501728
v 142.363968 92.363403 53.498272
v 142.363968 92.363403 -6.501728
v 112.363968 92.363403 5.607456
v 112.363968 92.363403 53.498272
v 112.363968 85.385582 53.498268
v 142.363968 85.385582 -6.501728
v 112.363968 85.385582 5.607456
v 142.363968 85.385582 53.498268
v 124.473152 85.385582 -6.501728
v 112.363968 84.610214 53.498268
v 142.363968 84.610214 -6.501728
v 142.363968 84.610214 53.498268
v 124.473152 84.610214 -6.501728
v 112.363968 84.610214 5.607456
v 142.363968 77.631790 -6.501728
v 142.363968 77.631790 53.498272
v 124.473152 77.631790 -6.501728
v 112.363968 77.631790 53.498272
v 112.363968 77.631790 5.607456
v 112.363968 76.856583 53.498272
v 142.363968 76.856583 -6.501728
v 142.363968 76.856583 53.498272
v 124.473152 76.856583 -6.501728
v 112.363968 76.856583 5.607456
v 142.363968 69.878578 -6.501728
v 142.363968 69.878578 53.498272
v 124.473152 69.878578 -6.501728
v 112.363968 69.878578 53.498272
v 112.363968 69.878578 5.607456
v 112.363968 69.102264 53.498272
v 142.363968 69.102264 -6.501728
v 142.363968 69.102264 53.498272
v 124.473152 69.102264 -6.501728
v 112.363968 69.102264 5.607456
v 142.363968 62.125130 -6.501728
v 142.363968 62.125130 53.498272
v 124.473152 62.125130 -6.501728
v 112.363968 62.125130 53.498272
v 112.363968 62.125130 5.607456
v 112.363968 61.348717 53.498272
v 142.363968 61.348717 -6.501728
v 142.363968 61.348717 53.498272
v 124.473152 61.348717 -6.501728
v 112.363968 61.348717 5.607456
v 142.363968 54.371597 -6.501728
v 142.363968 54.371597 53.498272
v 124.473152 54.371597 -6.501728
v 112.363968 54.371597 53.498272
v 112.363968 54.371597 5.607456
v 142.363968 53.594883 -6.501728
v 142.363968 53.594883 53.498272
v 112.363968 53.594883 53.498272
v 124.473152 53.594883 -6.501728
v 112.363968 53.594883 5.607456
v 142.363968 46.618221 -6.501728
v 142.363968 46.618221 53.498272
v 124.473152 46.618221 -6.501728
v 112.363968 46.618221 53.498272
v 112.363968 46.618221 5.607456
v 112.633980 69.878578 53.228256
v 112.633980 76.856583 53.228256
v 112.716759 69.878578 5.753588
v 112.716759 76.856583 5.753588
v 142.093948 76.856583 -6.231714
v 142.093948 76.856583 53.228256
v 124.619286 76.856583 -6.148937
v 142.093948 69.878578 -6.231714
v 142.093948 69.878578 53.228256
v 124.619286 69.878578 -6.148937
v 112.633980 62.125130 53.228256
v 112.633980 69.102264 53.228256
v 112.716759 62.125130 5.753588
v 112.716759 69.102264 5.753588
v 142.093948 69.102264 -6.231714
v 142.093948 69.102264 53.228256
v 124.619286 69.102264 -6.148937
v 142.093948 62.125130 -6.231714
v 142.093948 62.125130 53.228256
v 124.619286 62.125130 -6.148937
v 112.633980 54.371597 53.228256
v 112.633980 61.348717 53.228256
v 112.716759 54.371597 5.753588
v 112.716759 61.348717 5.753588
v 142.093948 61.348717 -6.231714
v 142.093948 61.348717 53.228256
v 124.619286 61.348717 -6.148937
v 142.093948 54.371597 -6.231714
v 142.093948 54.371597 53.228256
v 124.619286 54.371597 -6.148937
v 112.633980 46.618221 53.228256
v 112.633980 53.594883 53.228256
v 112.716759 46.618221 5.753588
v 112.716759 53.594883 5.753588
v 142.093948 53.594883 -6.231714
v 142.093948 53.594883 53.228256
v 124.619286 53.594883 -6.148937
v 142.093948 46.618221 -6.231714
v 142.093948 46.618221 53.228256
v 124.619286 46.618221 -6.148937
vt 0.243177 0.032301
vt 0.032301 0.087190
vt 0.087190 0.032301
vt 0.451185 0.297507
vt 0.449640 0.422387
vt 0.449006 0.297498
vt 0.450981 0.619043
vt 0.449640 0.743936
vt 0.448801 0.619033
vt 0.451154 0.172627
vt 0.448975 0.172617
vt 0.428005 0.012211
vt 0.699976 0.148196
vt 0.428005 0.148196
vt 0.451410 0.518569
vt 0.449230 0.518560
vt 0.032301 0.440257
vt 0.243177 0.304272
vt 0.243177 0.440257
vt 0.148196 0.464678
vt 0.420166 0.675554
vt 0.148196 0.675554
vt 0.668350 0.812846
vt 0.699976 0.597651
vt 0.699976 0.812846
vt 0.012211 0.519567
vt 0.012211 0.012211
vt 0.983033 0.358058
vt 0.985618 0.261986
vt 0.985213 0.358068
vt 0.403584 0.067100
vt 0.403584 0.284181
vt 0.267599 0.284181
vt 0.924180 0.360944
vt 0.892553 0.437244
vt 0.892553 0.360944
vt 0.924180 0.281733
vt 0.892553 0.785977
vt 0.924180 0.652439
vt 0.924180 0.785977
vt 0.892553 0.281733
vt 0.924180 0.012211
vt 0.892553 0.652439
vt 0.924180 0.437244
vt 0.812081 0.360944
vt 0.780451 0.437244
vt 0.780451 0.360944
vt 0.812081 0.281733
vt 0.780451 0.785977
vt 0.812081 0.652439
vt 0.812081 0.785977
vt 0.780451 0.281733
vt 0.812081 0.012211
vt 0.780451 0.652439
vt 0.812081 0.437244
vt 0.724397 0.437244
vt 0.756029 0.360944
vt 0.756029 0.437244
vt 0.724397 0.516454
vt 0.756029 0.012211
vt 0.724397 0.145748
vt 0.724397 0.012211
vt 0.756029 0.516454
vt 0.724397 0.785977
vt 0.756029 0.145748
vt 0.724397 0.360944
vt 0.868132 0.360943
vt 0.836502 0.437243
vt 0.836502 0.360943
vt 0.868132 0.281733
vt 0.836502 0.785977
vt 0.868132 0.652439
vt 0.868132 0.785977
vt 0.836502 0.281733
vt 0.868132 0.012211
vt 0.836502 0.652439
vt 0.868132 0.437243
vt 0.954999 0.306554
vt 0.958189 0.131903
vt 0.958061 0.305331
vt 0.984977 0.137098
vt 0.987084 0.013320
vt 0.987137 0.134938
vt 0.954712 0.445057
vt 0.958189 0.617677
vt 0.955144 0.620737
vt 0.547461 0.534692
vt 0.546204 0.467577
vt 0.547600 0.467002
vt 0.986523 0.456728
vt 0.984790 0.458446
vt 0.585076 0.172624
vt 0.581762 0.291177
vt 0.582007 0.172617
vt 0.584402 0.605419
vt 0.581765 0.781277
vt 0.581333 0.605413
vt 0.584832 0.291183
vt 0.581617 0.467033
vt 0.451820 0.422396
vt 0.955141 0.130884
vt 0.957421 0.013267
vt 0.957198 0.128836
vt 0.546102 0.604336
vt 0.546064 0.535264
vt 0.954859 0.374291
vt 0.955931 0.443843
vt 0.547744 0.291183
vt 0.545935 0.174664
vt 0.547990 0.172617
vt 0.951792 0.374285
vt 0.482499 0.534697
vt 0.479286 0.605448
vt 0.479433 0.534691
vt 0.483028 0.172624
vt 0.479716 0.291275
vt 0.479962 0.172617
vt 0.482353 0.605454
vt 0.479718 0.781149
vt 0.482782 0.291281
vt 0.479573 0.466963
vt 0.547315 0.605408
vt 0.544729 0.780496
vt 0.544268 0.608471
vt 0.516513 0.534709
vt 0.518045 0.467595
vt 0.517908 0.534134
vt 0.544691 0.294232
vt 0.516652 0.467015
vt 0.519846 0.292225
vt 0.519717 0.465790
vt 0.447655 0.423200
vt 0.513444 0.534702
vt 0.951646 0.445051
vt 0.955388 0.012217
vt 0.952075 0.130878
vt 0.952321 0.012211
vt 0.952078 0.620730
vt 0.951933 0.306548
vt 0.516367 0.605430
vt 0.519846 0.778183
vt 0.516799 0.781245
vt 0.447080 0.617506
vt 0.447243 0.519368
vt 0.581478 0.534710
vt 0.580221 0.467608
vt 0.516796 0.291205
vt 0.519073 0.173673
vt 0.518851 0.289158
vt 0.446815 0.174778
vt 0.550669 0.467009
vt 0.550530 0.534698
vt 0.513299 0.605424
vt 0.517041 0.172624
vt 0.513727 0.291198
vt 0.513972 0.172617
vt 0.513731 0.781238
vt 0.513583 0.467009
vt 0.580120 0.604341
vt 0.580081 0.535281
vt 0.478177 0.467538
vt 0.517586 0.604217
vt 0.447494 0.743414
vt 0.446646 0.621218
vt 0.579952 0.174664
vt 0.584686 0.467039
vt 0.584548 0.534716
vt 0.551058 0.172624
vt 0.550384 0.605415
vt 0.547747 0.781245
vt 0.550813 0.291190
vt 0.478072 0.604375
vt 0.478035 0.535263
vt 0.446849 0.299676
vt 0.578747 0.780528
vt 0.578285 0.608476
vt 0.477905 0.174665
vt 0.552062 0.467589
vt 0.551925 0.534123
vt 0.982611 0.458437
vt 0.984941 0.012220
vt 0.982798 0.137089
vt 0.982762 0.012211
vt 0.983455 0.583317
vt 0.983438 0.261976
vt 0.578708 0.294226
vt 0.482640 0.466969
vt 0.668350 0.442140
vt 0.699976 0.172617
vt 0.699976 0.442140
vt 0.668350 0.946384
vt 0.699976 0.946384
vt 0.668350 0.521351
vt 0.699976 0.521351
vt 0.668350 0.597651
vt 0.612304 0.812846
vt 0.643928 0.597650
vt 0.643928 0.812846
vt 0.612304 0.442140
vt 0.643928 0.172617
vt 0.643928 0.442140
vt 0.612304 0.946384
vt 0.643928 0.946384
vt 0.612304 0.521350
vt 0.643928 0.521350
vt 0.612304 0.597650
vt 0.987789 0.581142
vt 0.985634 0.583326
vt 0.510674 0.294247
vt 0.956393 0.307135
vt 0.956255 0.373716
vt 0.987148 0.137810
vt 0.987789 0.261103
vt 0.510713 0.780490
vt 0.510252 0.608486
vt 0.987594 0.262814
vt 0.987196 0.357256
vt 0.511917 0.174664
vt 0.484034 0.467550
vt 0.483896 0.534122
vt 0.512085 0.604352
vt 0.512047 0.535274
vt 0.483572 0.604240
vt 0.585620 0.604206
vt 0.512187 0.467583
vt 0.485062 0.173674
vt 0.484839 0.289233
vt 0.587108 0.173673
vt 0.586886 0.289137
vt 0.482785 0.781155
vt 0.485369 0.606202
vt 0.485830 0.778095
vt 0.587883 0.778220
vt 0.584835 0.781283
vt 0.949024 0.133924
vt 0.485830 0.292300
vt 0.485702 0.465746
vt 0.587883 0.292203
vt 0.587752 0.465815
vt 0.949063 0.619982
vt 0.948601 0.448110
vt 0.586079 0.467620
vt 0.585943 0.534141
vt 0.950265 0.014259
vt 0.950431 0.443978
vt 0.950394 0.374857
vt 0.551602 0.604202
vt 0.950536 0.307123
vt 0.553090 0.173673
vt 0.552868 0.289143
vt 0.553864 0.778188
vt 0.550816 0.781251
vt 0.476664 0.294321
vt 0.553864 0.292210
vt 0.553733 0.465784
vt 0.476241 0.608508
vt 0.032301 0.304272
vt 0.451820 0.743945
vt 0.699976 0.012211
vt 0.420166 0.464678
vt 0.012211 0.675554
vt 0.067100 0.464678
vt 0.267599 0.012211
vt 0.348695 0.012211
vt 0.892553 0.012211
vt 0.780451 0.012211
vt 0.756029 0.785977
vt 0.836503 0.012211
vt 0.957727 0.445805
vt 0.546067 0.534111
vt 0.987187 0.358890
vt 0.956251 0.374868
vt 0.545713 0.290134
vt 0.544585 0.466494
vt 0.447252 0.517731
vt 0.519385 0.606179
vt 0.580085 0.534129
vt 0.446863 0.296398
vt 0.478039 0.534110
vt 0.517905 0.535285
vt 0.579730 0.290128
vt 0.447496 0.422039
vt 0.477682 0.290225
vt 0.578601 0.466525
vt 0.668350 0.172617
vt 0.612304 0.172617
vt 0.986936 0.458969
vt 0.510568 0.466500
vt 0.511695 0.290149
vt 0.483892 0.535274
vt 0.585939 0.535292
vt 0.512051 0.534122
vt 0.587421 0.606168
vt 0.948920 0.306040
vt 0.950042 0.129827
vt 0.551921 0.535274
vt 0.950398 0.373704
vt 0.553402 0.606163
vt 0.476560 0.466455
vt 0.476703 0.780401
vn -1.0000 0.0000 0.0000
vn 1.0000 0.0000 0.0000
vn 0.0000 0.0000 1.0000
vn 0.0000 -1.0000 0.0000
vn 0.0000 0.0000 -1.0000
vn -1.0000 0.0000 -0.0017
vn -0.5774 0.5774 -0.5773
vn -0.7071 0.0000 -0.7071
vn 0.0000 1.0000 0.0000
vn -0.0047 0.0000 -1.0000
vn 0.0000 1.0000 -0.0001
vn 0.0000 -1.0000 -0.0001
s off
f 3/1/1 15/2/1 17/3/1
f 2/4/1 39/5/1 40/6/1
f 8/7/2 37/8/2 38/9/2
f 6/10/3 40/6/3 37/11/3
f 7/12/4 1/13/4 3/14/4
f 13/15/5 38/9/5 36/16/5
f 12/17/3 1/18/3 5/19/3
f 11/20/2 5/21/2 7/22/2
f 117/23/6 118/24/6 116/25/6
f 17/26/5 11/20/5 7/22/5
f 15/2/7 16/27/7 17/3/7
f 16/28/8 95/29/8 93/30/8
f 14/31/9 2/32/9 6/33/9
f 115/34/8 109/35/8 112/36/8
f 112/36/10 113/37/10 115/34/10
f 111/38/3 106/39/3 114/40/3
f 110/41/2 114/42/2 113/37/2
f 107/43/6 108/44/6 106/39/6
f 105/45/8 99/46/8 102/47/8
f 102/47/10 103/48/10 105/45/10
f 101/49/3 96/50/3 104/51/3
f 100/52/2 104/53/2 103/48/2
f 97/54/6 98/55/6 96/50/6
f 4/56/8 22/57/8 19/58/8
f 19/58/10 18/59/10 4/56/10
f 20/60/3 25/61/3 10/62/3
f 21/63/2 10/64/2 18/59/2
f 24/65/6 23/66/6 25/61/6
f 26/67/8 34/68/8 31/69/8
f 31/69/10 28/70/10 26/67/10
f 32/71/3 29/72/3 27/73/3
f 33/74/2 27/75/2 28/70/2
f 35/76/6 30/77/6 29/72/6
f 55/78/9 25/79/9 23/80/9
f 94/81/9 134/82/9 126/83/9
f 51/84/9 10/85/9 52/86/9
f 79/87/4 119/88/4 80/89/4
f 93/30/9 133/90/9 91/91/9
f 82/92/3 88/93/3 87/94/3
f 81/95/2 87/96/2 86/97/2
f 84/98/1 90/99/1 88/93/1
f 36/16/8 14/100/8 13/15/8
f 54/101/11 10/102/11 25/103/11
f 79/87/4 120/104/4 122/105/4
f 53/106/9 18/107/9 51/84/9
f 76/108/4 121/109/4 78/110/4
f 59/111/8 55/78/8 53/106/8
f 45/112/5 47/113/5 49/114/5
f 44/115/3 46/116/3 48/117/3
f 42/118/2 48/119/2 47/113/2
f 41/120/1 50/121/1 46/116/1
f 77/122/4 121/123/4 120/124/4
f 63/125/9 98/126/9 105/127/9
f 80/89/4 117/128/4 76/108/4
f 65/129/9 96/130/9 98/131/9
f 36/16/4 34/132/4 39/5/4
f 69/133/8 65/129/8 63/125/8
f 53/106/5 57/134/5 59/111/5
f 52/135/3 56/136/3 58/137/3
f 51/84/2 58/138/2 57/134/2
f 54/101/1 60/139/1 56/136/1
f 61/140/9 104/141/9 62/142/9
f 36/16/4 33/143/4 31/144/4
f 89/145/4 129/146/4 90/99/4
f 64/147/9 104/148/9 96/149/9
f 40/6/4 32/150/4 37/11/4
f 79/87/8 75/151/8 73/152/8
f 63/125/5 67/153/5 69/133/5
f 62/154/3 66/155/3 68/156/3
f 61/140/2 68/157/2 67/153/2
f 64/147/1 70/158/1 66/155/1
f 89/145/4 130/159/4 132/160/4
f 49/114/4 22/161/4 50/121/4
f 63/125/9 103/162/9 61/140/9
f 38/9/4 32/163/4 33/164/4
f 88/93/4 131/165/4 87/94/4
f 89/145/8 85/166/8 83/167/8
f 73/152/5 77/122/5 79/87/5
f 72/168/3 76/108/3 78/110/3
f 71/169/2 78/170/2 77/122/2
f 74/171/1 80/89/1 76/108/1
f 49/114/4 21/172/4 19/173/4
f 39/5/4 35/174/4 40/6/4
f 86/97/4 131/175/4 130/176/4
f 46/116/4 20/177/4 48/117/4
f 73/152/9 108/178/9 115/179/9
f 83/167/5 86/97/5 89/145/5
f 93/30/5 11/180/5 16/28/5
f 92/181/3 9/182/3 12/183/3
f 91/91/2 12/184/2 11/180/2
f 94/81/1 15/185/1 9/182/1
f 90/99/4 127/186/4 88/93/4
f 49/114/8 43/187/8 45/112/8
f 120/188/2 124/189/2 123/190/2
f 121/191/3 116/25/3 124/192/3
f 122/193/10 123/190/10 125/194/10
f 125/194/8 119/195/8 122/193/8
f 127/196/6 128/197/6 126/198/6
f 130/199/2 134/200/2 133/201/2
f 131/202/3 126/198/3 134/203/3
f 132/204/10 133/201/10 135/205/10
f 135/205/8 129/206/8 132/204/8
f 91/91/9 134/207/9 92/208/9
f 70/158/4 107/209/4 66/155/4
f 53/106/9 23/210/9 4/211/9
f 95/29/9 126/212/9 128/213/9
f 67/153/4 111/214/4 110/215/4
f 93/30/9 128/216/9 135/217/9
f 66/155/4 111/218/4 68/156/4
f 45/112/9 30/219/9 26/220/9
f 69/133/4 110/221/4 112/222/4
f 45/112/9 28/223/9 42/118/9
f 83/167/9 123/224/9 81/95/9
f 69/133/4 109/225/4 70/158/4
f 41/120/9 27/226/9 29/227/9
f 84/98/9 124/228/9 116/229/9
f 44/230/9 28/231/9 27/232/9
f 81/95/9 124/233/9 82/234/9
f 60/139/4 97/235/4 56/136/4
f 43/187/9 29/236/9 30/237/9
f 85/166/9 116/238/9 118/239/9
f 57/134/4 101/240/4 100/241/4
f 83/167/9 118/242/9 125/243/9
f 56/136/4 101/244/4 58/137/4
f 59/111/4 100/245/4 102/246/4
f 73/152/9 113/247/9 71/169/9
f 59/111/4 99/248/4 60/139/4
f 74/171/9 114/249/9 106/250/9
f 71/169/9 114/251/9 72/252/9
f 50/121/4 24/253/4 46/116/4
f 75/151/9 106/254/9 108/255/9
f 48/119/4 21/256/4 47/113/4
f 3/1/1 1/18/1 15/2/1
f 1/18/1 9/257/1 15/2/1
f 2/4/1 14/100/1 39/5/1
f 8/7/2 6/258/2 37/8/2
f 6/10/3 2/4/3 40/6/3
f 7/12/4 5/259/4 1/13/4
f 13/15/5 8/7/5 38/9/5
f 12/17/3 9/257/3 1/18/3
f 11/20/2 12/260/2 5/21/2
f 117/23/6 119/195/6 118/24/6
f 7/22/5 3/261/5 17/26/5
f 17/26/5 16/262/5 11/20/5
f 16/28/8 15/185/8 95/29/8
f 6/33/9 8/263/9 14/31/9
f 8/263/9 13/264/9 14/31/9
f 115/34/8 108/44/8 109/35/8
f 112/36/10 110/41/10 113/37/10
f 111/38/3 107/43/3 106/39/3
f 110/41/2 111/265/2 114/42/2
f 107/43/6 109/35/6 108/44/6
f 105/45/8 98/55/8 99/46/8
f 102/47/10 100/52/10 103/48/10
f 101/49/3 97/54/3 96/50/3
f 100/52/2 101/266/2 104/53/2
f 97/54/6 99/46/6 98/55/6
f 4/56/8 23/66/8 22/57/8
f 19/58/10 21/63/10 18/59/10
f 20/60/3 24/65/3 25/61/3
f 21/63/2 20/267/2 10/64/2
f 24/65/6 22/57/6 23/66/6
f 26/67/8 30/77/8 34/68/8
f 31/69/10 33/74/10 28/70/10
f 32/71/3 35/76/3 29/72/3
f 33/74/2 32/268/2 27/75/2
f 35/76/6 34/68/6 30/77/6
f 55/78/9 54/101/9 25/79/9
f 94/81/9 92/181/9 134/82/9
f 51/84/9 18/269/9 10/85/9
f 79/87/4 122/270/4 119/88/4
f 93/30/9 135/271/9 133/90/9
f 82/92/3 84/98/3 88/93/3
f 81/95/2 82/234/2 87/96/2
f 84/98/1 85/166/1 90/99/1
f 36/16/8 39/5/8 14/100/8
f 54/101/9 52/135/9 10/102/9
f 79/87/4 77/122/4 120/104/4
f 53/106/9 4/272/9 18/107/9
f 76/108/4 117/273/4 121/109/4
f 59/111/8 60/139/8 55/78/8
f 45/112/5 42/118/5 47/113/5
f 44/115/3 41/120/3 46/116/3
f 42/118/2 44/230/2 48/119/2
f 41/120/1 43/187/1 50/121/1
f 77/122/4 78/170/4 121/123/4
f 63/125/9 65/129/9 98/126/9
f 80/89/4 119/274/4 117/128/4
f 65/129/9 64/147/9 96/130/9
f 36/16/4 31/275/4 34/132/4
f 69/133/8 70/158/8 65/129/8
f 53/106/5 51/84/5 57/134/5
f 52/135/3 54/101/3 56/136/3
f 51/84/2 52/86/2 58/138/2
f 54/101/1 55/78/1 60/139/1
f 61/140/9 103/276/9 104/141/9
f 36/16/4 38/9/4 33/143/4
f 89/145/4 132/277/4 129/146/4
f 64/147/9 62/154/9 104/148/9
f 40/6/4 35/278/4 32/150/4
f 79/87/8 80/89/8 75/151/8
f 63/125/5 61/140/5 67/153/5
f 62/154/3 64/147/3 66/155/3
f 61/140/2 62/142/2 68/157/2
f 64/147/1 65/129/1 70/158/1
f 89/145/4 86/97/4 130/159/4
f 49/114/4 19/279/4 22/161/4
f 63/125/9 105/280/9 103/162/9
f 38/9/4 37/8/4 32/163/4
f 88/93/4 127/281/4 131/165/4
f 89/145/8 90/99/8 85/166/8
f 73/152/5 71/169/5 77/122/5
f 72/168/3 74/171/3 76/108/3
f 71/169/2 72/252/2 78/170/2
f 74/171/1 75/151/1 80/89/1
f 49/114/4 47/113/4 21/172/4
f 39/5/4 34/282/4 35/174/4
f 86/97/4 87/96/4 131/175/4
f 46/116/4 24/283/4 20/177/4
f 73/152/9 75/151/9 108/178/9
f 83/167/5 81/95/5 86/97/5
f 93/30/5 91/91/5 11/180/5
f 92/181/3 94/81/3 9/182/3
f 91/91/2 92/208/2 12/184/2
f 94/81/1 95/29/1 15/185/1
f 90/99/4 129/284/4 127/186/4
f 49/114/8 50/121/8 43/187/8
f 120/188/2 121/285/2 124/189/2
f 121/191/3 117/23/3 116/25/3
f 122/193/10 120/188/10 123/190/10
f 125/194/8 118/24/8 119/195/8
f 127/196/6 129/206/6 128/197/6
f 130/199/2 131/286/2 134/200/2
f 131/202/3 127/196/3 126/198/3
f 132/204/10 130/199/10 133/201/10
f 135/205/8 128/197/8 129/206/8
f 91/91/9 133/287/9 134/207/9
f 70/158/4 109/288/4 107/209/4
f 53/106/9 55/78/9 23/210/9
f 95/29/9 94/81/9 126/212/9
f 67/153/4 68/157/4 111/214/4
f 93/30/9 95/29/9 128/216/9
f 66/155/4 107/289/4 111/218/4
f 45/112/9 43/187/9 30/219/9
f 69/133/4 67/153/4 110/221/4
f 45/112/9 26/290/9 28/223/9
f 83/167/9 125/291/9 123/224/9
f 69/133/4 112/292/4 109/225/4
f 41/120/9 44/115/9 27/226/9
f 84/98/9 82/92/9 124/228/9
f 44/230/9 42/118/9 28/231/9
f 81/95/9 123/293/9 124/233/9
f 60/139/4 99/294/4 97/235/4
f 43/187/9 41/120/9 29/236/9
f 85/166/9 84/98/9 116/238/9
f 57/134/4 58/138/4 101/240/4
f 83/167/9 85/166/9 118/242/9
f 56/136/12 97/295/12 101/244/12
f 59/111/4 57/134/4 100/245/4
f 73/152/9 115/296/9 113/247/9
f 59/111/4 102/297/4 99/248/4
f 74/171/9 72/168/9 114/249/9
f 71/169/9 113/298/9 114/251/9
f 50/121/4 22/299/4 24/253/4
f 75/151/9 74/171/9 106/254/9
f 48/119/4 20/300/4 21/256/4
