# Blender v2.92.0 OBJ File: 'WhiteboxTwo1.blend'
# www.blender.org
mtllib skyscraper_glass.mtl
o Skyscraper_Glass_Plane
v 9.273092 88.392075 14.091652
v 9.273099 1.607922 14.091652
v 9.273092 88.392075 -14.354469
v 9.273099 1.607922 -14.354469
v 9.273092 88.151016 -14.354471
v 9.273092 88.151016 14.091654
v 9.273093 78.990463 -14.354471
v 9.273093 78.990463 14.091654
v 9.273093 78.508331 14.091654
v 9.273094 69.347778 14.091654
v 9.273094 69.347778 -14.354471
v 9.273093 78.508331 -14.354471
v 9.273094 68.865639 14.091654
v 9.273094 59.705090 14.091654
v 9.273094 59.705093 -14.354471
v 9.273094 68.865646 -14.354471
v 9.273094 59.271172 14.091651
v 9.273095 50.014194 14.091651
v 9.273095 50.014194 -14.354470
v 9.273094 59.271172 -14.354470
v 9.273095 49.580273 14.091654
v 9.273096 40.419724 14.091654
v 9.273096 40.419724 -14.354471
v 9.273095 49.580276 -14.354471
v 9.273096 39.937588 14.091654
v 9.273097 30.777039 14.091654
v 9.273097 30.777042 -14.354471
v 9.273096 39.937592 -14.354471
v 9.273097 30.294905 14.091654
v 9.273097 21.134354 14.091654
v 9.273097 21.134356 -14.354471
v 9.273097 30.294907 -14.354471
v 9.273097 20.652220 14.091654
v 9.273098 11.491670 14.091654
v 9.273098 11.491673 -14.354471
v 9.273097 20.652222 -14.354471
v 9.273098 11.009538 14.091654
v 9.273099 1.848988 14.091654
v 9.273099 1.848988 -14.354471
v 9.273098 11.009542 -14.354471
v 8.971904 88.151016 -14.354471
v 8.971904 88.151016 14.091654
v 8.971905 78.990463 -14.354471
v 8.971905 78.990463 14.091654
v 8.971905 78.508331 14.091654
v 8.971906 69.347778 14.091654
v 8.971906 69.347778 -14.354471
v 8.971905 78.508331 -14.354471
v 8.971906 68.865639 14.091654
v 8.971906 59.705090 14.091654
v 8.971906 59.705093 -14.354471
v 8.971906 68.865646 -14.354471
v 8.971906 59.271172 14.091651
v 8.971907 50.014194 14.091651
v 8.971907 50.014194 -14.354470
v 8.971906 59.271172 -14.354470
v 8.971907 49.580273 14.091654
v 8.971908 40.419724 14.091654
v 8.971908 40.419724 -14.354471
v 8.971907 49.580276 -14.354471
v 8.971908 39.937588 14.091654
v 8.971909 30.777039 14.091654
v 8.971909 30.777042 -14.354471
v 8.971908 39.937592 -14.354471
v 8.971909 30.294905 14.091654
v 8.971909 21.134354 14.091654
v 8.971909 21.134356 -14.354471
v 8.971909 30.294907 -14.354471
v 8.971909 20.652220 14.091654
v 8.971910 11.491670 14.091654
v 8.971910 11.491673 -14.354471
v 8.971909 20.652222 -14.354471
v 8.971910 11.009538 14.091654
v 8.971910 1.848988 14.091654
v 8.971910 1.848988 -14.354471
v 8.971910 11.009542 -14.354471
vt 0.787283 0.823092
vt 0.793575 0.462623
vt 0.793575 0.823093
vt 0.985218 0.774771
vt 0.979770 0.462625
vt 0.985218 0.462589
vt 0.905675 0.367172
vt 0.911825 0.014815
vt 0.911825 0.367183
vt 0.952988 0.327000
vt 0.947539 0.014847
vt 0.952988 0.014818
vt 0.938607 0.462622
vt 0.932457 0.814979
vt 0.932457 0.462610
vt 0.799867 0.823059
vt 0.857378 0.014815
vt 0.863670 0.375286
vt 0.857378 0.375285
vt 0.745137 0.462623
vt 0.751428 0.823059
vt 0.745137 0.823093
vt 0.884160 0.823092
vt 0.890452 0.462623
vt 0.890452 0.823093
vt 0.738845 0.462622
vt 0.690406 0.462624
vt 0.696698 0.823093
vt 0.690406 0.823094
vt 0.835722 0.823092
vt 0.829430 0.462656
vt 0.835722 0.462622
vt 0.877869 0.462656
vt 0.884160 0.462622
vt 0.958436 0.326964
vt 0.958436 0.014782
vt 0.320608 0.014782
vt 0.183200 0.433025
vt 0.183200 0.014782
vt 0.014782 0.880832
vt 0.152190 0.462589
vt 0.152190 0.880832
vt 0.517143 0.014782
vt 0.654551 0.433025
vt 0.517143 0.433025
vt 0.014782 0.433025
vt 0.153636 0.014782
vt 0.153636 0.433025
vt 0.517143 0.880833
vt 0.654551 0.462589
vt 0.654551 0.880833
vt 0.320608 0.880833
vt 0.183200 0.462589
vt 0.320608 0.462589
vt 0.684115 0.433025
vt 0.821523 0.014782
vt 0.821523 0.433025
vt 0.350172 0.880833
vt 0.487580 0.462589
vt 0.487580 0.880833
vt 0.487580 0.014782
vt 0.350172 0.433025
vt 0.350172 0.014782
vt 0.899525 0.014836
vt 0.905675 0.014803
vt 0.696698 0.462623
vt 0.702990 0.823059
vt 0.979770 0.774807
vt 0.974321 0.462654
vt 0.926307 0.462644
vt 0.863670 0.014816
vt 0.869962 0.375252
vt 0.896744 0.823059
vt 0.842014 0.462623
vt 0.848305 0.823059
vt 0.842014 0.823093
vt 0.738845 0.823092
vt 0.732553 0.462656
vt 0.780992 0.462656
vt 0.787283 0.462622
vt 0.684115 0.462658
vt 0.917976 0.367150
vt 0.944757 0.814957
vt 0.938607 0.814991
vt 0.851087 0.014848
vt 0.947539 0.327029
vt 0.799867 0.462589
vt 0.751428 0.462589
vt 0.829430 0.823125
vt 0.877869 0.823126
vt 0.320608 0.433025
vt 0.014782 0.462589
vt 0.654551 0.014782
vt 0.014782 0.014782
vt 0.517143 0.462589
vt 0.183200 0.880832
vt 0.684115 0.014782
vt 0.350172 0.462589
vt 0.487580 0.433025
vt 0.899525 0.367205
vt 0.702990 0.462589
vt 0.974321 0.774837
vt 0.926307 0.815012
vt 0.869962 0.014782
vt 0.896744 0.462589
vt 0.848305 0.462589
vt 0.732553 0.823126
vt 0.780992 0.823126
vt 0.684115 0.823128
vt 0.917976 0.014782
vt 0.944757 0.462589
vt 0.851087 0.375319
vn 1.0000 0.0000 0.0000
vn 0.0000 1.0000 0.0000
vn 0.0000 -1.0000 0.0000
usemtl Material.001
s off
f 13/1/1 11/2/1 10/3/1
f 1/4/1 5/5/1 3/6/1
f 17/7/1 15/8/1 14/9/1
f 39/10/2 74/11/2 38/12/2
f 21/13/1 19/14/1 18/15/1
f 11/2/2 46/16/2 10/3/2
f 22/17/1 28/18/1 23/19/1
f 31/20/2 66/21/2 30/22/2
f 29/23/1 27/24/1 26/25/1
f 30/22/1 36/26/1 31/20/1
f 34/27/1 40/28/1 35/29/1
f 9/30/3 48/31/3 12/32/3
f 29/23/3 68/33/3 32/34/3
f 4/35/1 38/12/1 2/36/1
f 44/37/1 41/38/1 42/39/1
f 46/40/1 48/41/1 45/42/1
f 49/43/1 51/44/1 52/45/1
f 54/46/1 56/47/1 53/48/1
f 58/49/1 60/50/1 57/51/1
f 61/52/1 63/53/1 64/54/1
f 66/55/1 68/56/1 65/57/1
f 70/58/1 72/59/1 69/60/1
f 74/61/1 76/62/1 73/63/1
f 17/7/3 56/64/3 20/65/3
f 37/66/3 76/67/3 40/28/3
f 6/68/3 41/69/3 5/5/3
f 19/14/2 54/70/2 18/15/2
f 25/71/3 64/72/3 28/18/3
f 27/24/2 62/73/2 26/25/2
f 7/74/2 44/75/2 8/76/2
f 33/77/3 72/78/3 36/26/3
f 13/1/3 52/79/3 16/80/3
f 35/29/2 70/81/2 34/27/2
f 15/8/2 50/82/2 14/9/2
f 21/13/3 60/83/3 24/84/3
f 23/19/2 58/85/2 22/17/2
f 9/30/1 7/74/1 8/76/1
f 13/1/1 16/80/1 11/2/1
f 1/4/1 6/68/1 5/5/1
f 17/7/1 20/65/1 15/8/1
f 39/10/2 75/86/2 74/11/2
f 21/13/1 24/84/1 19/14/1
f 11/2/2 47/87/2 46/16/2
f 22/17/1 25/71/1 28/18/1
f 31/20/2 67/88/2 66/21/2
f 29/23/1 32/34/1 27/24/1
f 30/22/1 33/77/1 36/26/1
f 34/27/1 37/66/1 40/28/1
f 9/30/3 45/89/3 48/31/3
f 29/23/3 65/90/3 68/33/3
f 4/35/1 39/10/1 38/12/1
f 44/37/1 43/91/1 41/38/1
f 46/40/1 47/92/1 48/41/1
f 49/43/1 50/93/1 51/44/1
f 54/46/1 55/94/1 56/47/1
f 58/49/1 59/95/1 60/50/1
f 61/52/1 62/96/1 63/53/1
f 66/55/1 67/97/1 68/56/1
f 70/58/1 71/98/1 72/59/1
f 74/61/1 75/99/1 76/62/1
f 17/7/3 53/100/3 56/64/3
f 37/66/3 73/101/3 76/67/3
f 6/68/3 42/102/3 41/69/3
f 19/14/2 55/103/2 54/70/2
f 25/71/3 61/104/3 64/72/3
f 27/24/2 63/105/2 62/73/2
f 7/74/2 43/106/2 44/75/2
f 33/77/3 69/107/3 72/78/3
f 13/1/3 49/108/3 52/79/3
f 35/29/2 71/109/2 70/81/2
f 15/8/2 51/110/2 50/82/2
f 21/13/3 57/111/3 60/83/3
f 23/19/2 59/112/2 58/85/2
f 9/30/1 12/32/1 7/74/1
